<svg width="22" height="22" viewBox="0 0 22 22" fill="currentColor" xmlns="http://www.w3.org/2000/svg">
<path fill-rule="evenodd" clip-rule="evenodd" d="M16.3545 21.2324C14.3344 20.7262 10.1989 19.2994 6.44976 15.5503C2.70065 11.8012 1.2738 7.66565 0.767675 5.64556C0.47681 4.48465 1.00058 3.3644 1.88869 2.73003L4.21694 1.067C5.57922 0.0939403 7.47432 0.424129 8.42724 1.80057L9.89303 3.91782C10.5152 4.81656 10.3006 6.04836 9.41112 6.68371L8.24234 7.51856C8.41923 8.19516 8.96939 9.58462 10.6924 11.3076C12.4154 13.0306 13.8049 13.5808 14.4815 13.7577L15.3163 12.5889C15.9517 11.6994 17.1835 11.4848 18.0822 12.107L20.1995 13.5728C21.5759 14.5257 21.9061 16.4208 20.933 17.7831L19.27 20.1113C18.6356 20.9995 17.5154 21.5232 16.3545 21.2324ZM7.86397 14.1361C11.2734 17.5454 15.0358 18.8401 16.8405 19.2923C17.1043 19.3584 17.4232 19.2559 17.6425 18.9489L19.3056 16.6206C19.6299 16.1665 19.5199 15.5348 19.061 15.2172L16.9438 13.7514L16.0479 15.0056C15.6818 15.5182 15.0047 15.9203 14.2163 15.7502C13.2323 15.5378 11.4133 14.8569 9.27819 12.7218C7.1431 10.5868 6.46219 8.76776 6.24987 7.78376C6.07977 6.99536 6.48181 6.31827 6.99439 5.95214L8.24864 5.05624L6.78285 2.93899C6.46521 2.48017 5.83351 2.37011 5.37942 2.69446L3.05117 4.3575C2.74413 4.57681 2.64162 4.89571 2.70771 5.15949C3.15989 6.96424 4.45459 10.7267 7.86397 14.1361Z" fill="#2D2424"/>
</svg>
