<svg width="21" height="23" viewBox="0 0 21 23" fill="currentColor" xmlns="http://www.w3.org/2000/svg">
<path fill-rule="evenodd" clip-rule="evenodd" d="M14 5.5C14 8.53757 11.7614 11 9 11C6.23858 11 4 8.53757 4 5.5C4 2.46243 6.23858 0 9 0C11.7614 0 14 2.46243 14 5.5ZM6 5.5C6 7.32254 7.34315 8.8 9 8.8C10.6569 8.8 12 7.32254 12 5.5C12 3.67746 10.6569 2.2 9 2.2C7.34315 2.2 6 3.67746 6 5.5Z" fill="#2D2424"/>
<path d="M8.67593 13.9952C7.78675 13.9679 7.19453 13.8277 6.72609 13.6447C6.26355 13.464 5.89822 13.237 5.41685 12.9378C5.32296 12.8795 5.22448 12.8183 5.12019 12.7543C4.07587 12.1132 2.73464 12.2622 1.86415 13.1419C1.48443 13.5256 1.04036 14.0219 0.6849 14.5626C0.346032 15.0781 0 15.7638 0 16.5V19.0003C0 20.6574 1.34334 22 3 22H10.101C9.51514 21.4259 9.02974 20.7496 8.67364 20H3C2.44752 20 2 19.5524 2 19.0003V16.5C2 16.3549 2.08549 16.073 2.35613 15.6613C2.61017 15.2748 2.95358 14.8844 3.28579 14.5487C3.49412 14.3381 3.81106 14.2974 4.07389 14.4588C4.15661 14.5095 4.24087 14.5621 4.32694 14.6159C4.80938 14.9171 5.34918 15.254 5.99836 15.5076C6.58761 15.7378 7.25188 15.8974 8.07607 15.9645C8.17912 15.2695 8.38433 14.6078 8.67593 13.9952Z" fill="#2D2424"/>
<path d="M14 15C14 14.4477 14.4477 14 15 14C15.5523 14 16 14.4477 16 15V16.703L16.8801 17.583C17.2706 17.9736 17.2706 18.6067 16.8801 18.9973C16.4896 19.3878 15.8564 19.3878 15.4659 18.9973L14.2929 17.8243C14.0828 17.6142 13.9857 17.3338 14.0017 17.0588C14.0006 17.0393 14 17.0197 14 17V15Z" fill="#2D2424"/>
<path fill-rule="evenodd" clip-rule="evenodd" d="M21 17C21 20.3137 18.3137 23 15 23C11.6863 23 9 20.3137 9 17C9 13.6863 11.6863 11 15 11C18.3137 11 21 13.6863 21 17ZM10.9819 17C10.9819 19.2191 12.7809 21.0181 15 21.0181C17.2191 21.0181 19.0181 19.2191 19.0181 17C19.0181 14.7809 17.2191 12.9819 15 12.9819C12.7809 12.9819 10.9819 14.7809 10.9819 17Z" fill="#2D2424"/>
</svg>
