<svg width="20" height="22" viewBox="0 0 20 22" fill="currentColor" xmlns="http://www.w3.org/2000/svg">
<path fill-rule="evenodd" clip-rule="evenodd" d="M17 22L9.00001 22C8.44772 22 8.00001 21.5523 8.00001 21C8.00001 20.4477 8.44772 20 9.00001 20L17 20C17.5523 20 18 19.5523 18 19L18 3C18 2.44771 17.5523 2 17 2L9.00001 2C8.44772 2 8 1.55228 8 1C8 0.447715 8.44772 -3.69262e-07 9.00001 -3.93403e-07L17 -7.43094e-07C18.6569 -8.15517e-07 20 1.34315 20 3L20 19C20 20.6569 18.6569 22 17 22Z" fill="#2D2424"/>
<path fill-rule="evenodd" clip-rule="evenodd" d="M15.6881 9.69012C16.3396 10.4418 16.3396 11.5581 15.6881 12.3098L11.5114 17.1291C10.2988 18.5282 8 17.6707 8 15.8193L8 14L2 14C0.895429 14 -1.73059e-07 13.1046 -3.17905e-07 12L-5.24537e-07 9.99998C-6.69384e-07 8.89541 0.895431 7.99998 2 7.99998L8 7.99998L8 6.18071C8 4.3293 10.2988 3.47176 11.5114 4.87085L15.6881 9.69012ZM13.6091 11.6549C13.9348 11.279 13.9348 10.7209 13.6091 10.345L10 6.18071L10 8.49998C10 9.32841 9.32843 9.99998 8.5 9.99998L2 9.99998L2 12L8.5 12C9.32843 12 10 12.6716 10 13.5L10 15.8193L13.6091 11.6549Z" fill="#2D2424"/>
</svg>
