<svg width="14" height="14" viewBox="0 0 14 14" fill="none" xmlns="http://www.w3.org/2000/svg">
<path d="M7.66683 1.00004C7.66683 0.631851 7.36835 0.333374 7.00016 0.333374C6.63197 0.333374 6.3335 0.631851 6.3335 1.00004V6.33337H1.00016C0.631973 6.33337 0.333496 6.63185 0.333496 7.00004C0.333496 7.36823 0.631973 7.66671 1.00016 7.66671H6.3335V13C6.3335 13.3682 6.63197 13.6667 7.00016 13.6667C7.36835 13.6667 7.66683 13.3682 7.66683 13V7.66671H13.0002C13.3684 7.66671 13.6668 7.36823 13.6668 7.00004C13.6668 6.63185 13.3684 6.33337 13.0002 6.33337H7.66683V1.00004Z" fill="white"/>
</svg>
